<svg width="50" height="50" viewBox="0 0 50 50" fill="none" xmlns="http://www.w3.org/2000/svg">
<rect width="50" height="50" rx="25" fill="#F4674D"/>
<path d="M27.8134 32.427L21.75 31.75L23 33L27.7997 35.0855C27.652 37.6461 26.5705 39.249 24.5552 39.8943L25.1603 41.6786C26.9704 41.1614 28.3409 40.3184 29.2718 39.1496C30.213 37.9808 30.6837 36.4241 30.6837 34.4795V31.3455C30.6837 28.832 31.7801 27.5753 33.9729 27.5753V25.3256C31.7801 25.3256 30.6837 24.0896 30.6837 21.6175V18.3593C30.6733 16.4458 30.2079 14.9098 29.2873 13.7513C28.3667 12.5825 26.9911 11.7395 25.1603 11.2224L24.5707 13.0066C26.7325 13.6996 27.8134 15.5045 27.8134 18.4214V21.5709C27.8134 23.981 28.7495 25.6101 30.6216 26.4582C28.7495 27.3271 27.8134 28.9562 27.8134 31.3455V32.427Z" fill="white"/>
<path d="M22.7656 20.487C22.7656 22.0791 21.4749 23.3698 19.8828 23.3698C18.2907 23.3698 17 22.0791 17 20.487C17 18.8949 18.2907 17.6042 19.8828 17.6042C21.4749 17.6042 22.7656 18.8949 22.7656 20.487Z" fill="white"/>
</svg>
